<svg xmlns="http://www.w3.org/2000/svg" width="1123" height="794" stroke="#000" stroke-linecap="round" stroke-linejoin="round" fill="#fff" fill-rule="evenodd"><g fill-rule="nonzero" stroke="none"><path d="M188.9469 456.9512c.2076-.3267 21.2266-32.8595 58.0339-46.6503 10.3093-3.8639 28.1759-5.86 48.8633-8.1726 58.0492-6.4856 130.2936-14.5593 130.2936-72.5223s-72.2444-66.0368-130.2936-72.5235c-20.688-2.3115-38.554-4.3087-48.8633-8.1726-36.6215-13.7236-57.8302-46.3348-58.0339-46.6514-2.1452-3.3721-5.6409-3.4006-7.8085-.0641s-2.1845 8.778-.0413 12.1481c.2127.3349 1.5454 2.3951 3.9251 5.5383v219.4494c-2.3797 3.143-3.7124 5.2021-3.9251 5.5381-1.0651 1.6744-1.5971 3.8588-1.5971 6.0419 0 2.2128.5464 4.4257 1.6384 6.1062 2.1682 3.3365 5.6633 3.3081 7.8085-.0652z" fill="#ffdb56"/><path d="M181.1395 151.9847c-2.1682 3.3387-2.1846 8.778-.0413 12.1482.2126.3348 1.5453 2.395 3.925 5.5382v-20.1689c-1.4034 0-2.8076.8255-3.8837 2.4825zm7.8065 304.9666c.2076-.3265 21.2266-32.8593 58.0339-46.6503 10.3093-3.8639 28.1759-5.86 48.8633-8.1724 58.0492-6.4858 130.2936-14.5595 130.2936-72.5225 0-8.2722-1.4761-15.5234-4.1671-21.9033-16.1677 38.3275-76.3604 45.0586-126.1259 50.6191-20.688 2.3126-38.5541 4.3087-48.8633 8.1723-36.8074 13.7931-57.8257 46.325-58.0336 46.6506-1.0804 1.6977-2.5027 2.5457-3.9251 2.5457v23.6387c-2.3796 3.1432-3.7123 5.2023-3.925 5.5383-1.0651 1.6744-1.5968 3.8586-1.5968 6.0419 0 2.2128.5461 4.4257 1.6381 6.1062 2.1676 3.3374 5.6627 3.309 7.8079-.0643z" fill="#fba806"/><path d="M181.1395 390.4316c-2.1682 3.3385-2.1846 8.7769-.0413 12.1482.2126.3349 1.5453 2.395 3.925 5.538V387.95c-1.4034-.0011-2.8076.8244-3.8837 2.4816z" fill="#763794"/><path d="M182.0352 236.9484c-1.6409 1.6418-2.5346 4.4074-2.5346 7.232 0 1.5918.2839 3.2021.8781 4.6394.1938.4671 1.7691 4.2199 4.644 9.6269v-22.8581c-1.0247-.002-2.0609.4336-2.9875 1.3598z" fill="#d9510d"/><path d="M165.0958 539.5142V156.0515c0-3.618 5.419-6.5515 12.1063-6.5515h710.1916c6.6873 0 12.1063 2.9335 12.1063 6.5515s-5.419 6.5515-12.1063 6.5515H189.3069v376.9121c0 3.618-5.4193 6.5515-12.1063 6.5515s-12.1048-2.9341-12.1048-6.5524z" fill="gray"/></g><path d="M455.3244 349.6815v-1.0025q0-17.8323 9.579-28.6822 9.5785-10.8496 25.0835-10.8496 15.4235 0 24.4342 9.31V278.066h15.018v110.0018h-13.8l-.7308-8.3074q-9.0107 9.7395-25.0834 9.7395-15.2616 0-24.8808-11.0288-9.6197-11.0286-9.6197-28.7896zm15.0177.5014q0 13.1775 6.1693 20.6253 6.1698 7.4481 17.0474 7.4481 14.2869 0 20.8623-11.3153v-35.5929q-6.7374-10.9573-20.7-10.9573-11.0399 0-17.2097 7.5196-6.1693 7.5198-6.1693 22.2725zM589.1854 389.5q-17.8591 0-29.0615-10.3487-11.2024-10.3482-11.2024-27.6793v-2.4348q0-11.5303 4.9924-20.5896 4.9925-9.0594 13.9624-14.18 8.97-5.1204 19.4419-5.1204 17.1283 0 26.6259 9.9546 9.4979 9.9544 9.4979 28.503v5.5145h-59.5028q.3247 11.4585 7.5902 18.5125 7.2653 7.054 18.4674 7.054 7.9554 0 13.4755-2.8643 5.5201-2.8648 9.6601-7.5914l9.1729 6.3021Q611.2654 389.5 589.1854 389.5zm-1.8672-69.467q-9.0918 0-15.2614 5.8366-6.1692 5.8365-7.6304 16.3641h43.9976v-1.0027q-.6492-10.0979-6.1692-15.6482-5.5201-5.5498-14.9366-5.5498zm75.9099-41.967l24.4649 40.1577 24.774-40.1577h22.2971l-36.5421 54.3909 37.6773 55.6109h-22.0906l-25.8063-41.1746-25.8064 41.1746h-22.1937l37.6776-55.6109-36.5421-54.3909h22.0903zm118.9424 60.3005v10.8138h-39.6147v-10.8138h39.6147zm25.5081-46.5504h15.0177v18.7632h16.3975v10.241h-16.3975v48.0541q0 4.6551 2.1917 6.9827 2.192 2.3272 7.4682 2.3272 2.5978 0 7.1437-.8591v10.7422q-5.9257 1.4324-11.5271 1.4324-10.066 0-15.1802-5.3709-5.114-5.3714-5.114-15.2545v-48.0541h-15.9919v-10.241h15.9919v-18.7632z" stroke="#fff"/></svg>