<svg xmlns="http://www.w3.org/2000/svg" width="386" height="113" stroke="#000" stroke-linecap="round" stroke-linejoin="round" fill="#000" fill-rule="evenodd"><path d="M.5 72.1155V71.113q0-17.8323 9.579-28.6822 9.5785-10.8496 25.0835-10.8496 15.4235 0 24.4342 9.31V.5h15.018v110.0018h-13.8l-.7308-8.3074q-9.0107 9.7395-25.0834 9.7395-15.2616 0-24.8808-11.0288Q.5 89.8765.5 72.1155zm15.0177.5014q0 13.1775 6.1693 20.6253 6.1698 7.4481 17.0474 7.4481 14.2869 0 20.8623-11.3153V53.7821q-6.7374-10.9573-20.7-10.9573-11.0399 0-17.2097 7.5196-6.1693 7.5198-6.1693 22.2725zM134.361 111.934q-17.8591 0-29.0615-10.3487Q94.0971 91.2371 94.0971 73.906v-2.4348q0-11.5303 4.9924-20.5896 4.9925-9.0594 13.9624-14.18 8.97-5.1204 19.4419-5.1204 17.1283 0 26.6259 9.9546 9.4979 9.9544 9.4979 28.503v5.5145h-59.5028q.3247 11.4585 7.5902 18.5125 7.2653 7.054 18.4674 7.054 7.9554 0 13.4755-2.8643 5.5201-2.8648 9.6601-7.5914l9.1729 6.3021Q156.441 111.934 134.361 111.934zm-1.8672-69.467q-9.0918 0-15.2614 5.8366-6.1692 5.8365-7.6304 16.3641h43.9976V63.665q-.6492-10.0979-6.1692-15.6482-5.5201-5.5498-14.9366-5.5498zM208.4037.5l24.4649 40.1577L257.6426.5h22.2971l-36.5421 54.3909 37.6773 55.6109h-22.0906L233.178 69.3272l-25.8064 41.1746h-22.1937l37.6776-55.6109L186.3134.5h22.0903zm118.9424 60.3005v10.8138h-39.6147V60.8005h39.6147zm25.5081-46.5504h15.0177v18.7632h16.3975v10.241h-16.3975v48.0541q0 4.6551 2.1917 6.9827 2.192 2.3272 7.4682 2.3272 2.5978 0 7.1437-.8591v10.7422q-5.9257 1.4324-11.5271 1.4324-10.066 0-15.1802-5.3709-5.114-5.3714-5.114-15.2545V43.2543h-15.9919v-10.241h15.9919V14.2501z"/></svg>