<svg xmlns="http://www.w3.org/2000/svg" width="1123" height="794" stroke="none" stroke-linecap="round" stroke-linejoin="round" fill="#fff" fill-rule="nonzero"><path d="M514.4442 487.5462c-.3267-.2076-32.8595-21.2266-46.6503-58.0339-3.8639-10.3093-5.86-28.1759-8.1726-48.8633-6.4856-58.0492-14.5593-130.2936-72.5223-130.2936s-66.0368 72.2444-72.5235 130.2936c-2.3115 20.688-4.3087 38.554-8.1726 48.8633-13.7236 36.6215-46.3348 57.8302-46.6514 58.0339-3.3721 2.1452-3.4006 5.6409-.0641 7.8085s8.778 2.1845 12.1481.0413c.3349-.2127 2.3951-1.5454 5.5383-3.9251h219.4494c3.143 2.3797 5.2021 3.7124 5.5381 3.9251 1.6744 1.0651 3.8588 1.5971 6.0419 1.5971 2.2128 0 4.4257-.5464 6.1062-1.6384 3.3365-2.1682 3.3081-5.6633-.0652-7.8085z" fill="#ffdb56"/><path d="M209.4777 495.3535c3.3387 2.1682 8.778 2.1846 12.1482.0413.3348-.2126 2.395-1.5453 5.5382-3.925h-20.1689c0 1.4034.8255 2.8076 2.4825 3.8837zm304.9666-7.8064c-.3265-.2076-32.8593-21.2266-46.6503-58.0339-3.8639-10.3093-5.86-28.1759-8.1724-48.8633-6.4858-58.0492-14.5595-130.2936-72.5225-130.2936-8.2722 0-15.5234 1.4761-21.9033 4.1671 38.3275 16.1677 45.0586 76.3604 50.6191 126.1259 2.3126 20.688 4.3087 38.5541 8.1723 48.8633 13.7931 36.8074 46.325 57.8257 46.6506 58.0336 1.6977 1.0804 2.5457 2.5027 2.5457 3.9251h23.6387c3.1432 2.3796 5.2023 3.7123 5.5383 3.925 1.6744 1.0651 3.8586 1.5968 6.0419 1.5968 2.2128 0 4.4257-.5461 6.1062-1.6381 3.3374-2.1676 3.309-5.6627-.0643-7.8079z" fill="#fba806"/><path d="M447.9246 495.3535c3.3385 2.1682 8.7769 2.1846 12.1482.0413.3349-.2126 2.395-1.5453 5.538-3.925H445.443c-.0011 1.4034.8244 2.8076 2.4816 3.8837z" fill="#763794"/><path d="M294.4415 494.4579c1.6418 1.6409 4.4074 2.5346 7.232 2.5346 1.5918 0 3.2021-.2839 4.6394-.8781.4671-.1938 4.2199-1.7691 9.6269-4.644h-22.8581c-.002 1.0247.4336 2.0609 1.3598 2.9875z" fill="#d9510d"/><path d="M597.0072 501.3973H213.5445c-3.618 0-6.5515-2.5413-6.5515-5.6773V162.6704c0-3.136 2.9335-5.6773 6.5515-5.6773s6.5515 2.5413 6.5515 5.6773v327.3729h376.9121c3.618 0 6.5515 2.5414 6.5515 5.6774s-2.9341 5.6766-6.5524 5.6766z" fill="gray"/></svg>